<?xml version="1.0" standalone="no"?>
<!DOCTYPE svg PUBLIC "-//W3C//DTD SVG 20010904//EN"
 "http://www.w3.org/TR/2001/REC-SVG-20010904/DTD/svg10.dtd">
<svg version="1.0" xmlns="http://www.w3.org/2000/svg"
 width="700.000000pt" height="700.000000pt" viewBox="0 0 700.000000 700.000000"
 preserveAspectRatio="xMidYMid meet">
<metadata>
Created by potrace 1.14, written by Peter Selinger 2001-2017
</metadata>
<g transform="translate(0.000000,700.000000) scale(0.100000,-0.100000)"
fill="#000000" stroke="none">
<path d="M2120 6053 c-134 -34 -203 -103 -325 -324 -16 -29 -201 -344 -248
-424 -49 -81 -60 -100 -76 -128 -22 -38 -223 -381 -456 -777 -92 -157 -175
-298 -185 -315 -34 -60 -81 -140 -90 -155 -52 -84 -138 -235 -159 -279 -36
-79 -40 -201 -8 -280 19 -46 305 -543 537 -931 31 -52 220 -376 421 -718 372
-637 403 -684 492 -736 95 -56 42 -54 1478 -54 1427 1 1383 -1 1474 52 53 31
106 83 137 132 14 21 103 172 198 334 95 162 180 307 189 322 34 57 226 385
253 433 16 28 37 64 47 80 10 17 103 174 206 350 172 292 248 422 372 635 24
41 51 99 60 129 20 70 14 179 -14 242 -18 41 -139 249 -603 1039 -56 96 -133
227 -170 290 -37 63 -128 219 -203 345 -74 127 -144 246 -154 265 -11 19 -40
69 -65 110 -24 41 -64 108 -88 148 -74 126 -160 194 -277 220 -23 5 -617 9
-1364 9 -1109 1 -1333 -2 -1379 -14z"/>
</g>
</svg>
